<?xml version="1.0" standalone="no"?>
<!DOCTYPE svg PUBLIC "-//W3C//DTD SVG 20010904//EN"
 "http://www.w3.org/TR/2001/REC-SVG-20010904/DTD/svg10.dtd">
<svg version="1.0" xmlns="http://www.w3.org/2000/svg"
 width="7500.000000pt" height="5000.000000pt" viewBox="0 0 7500.000000 5000.000000"
 preserveAspectRatio="xMidYMid meet">

<g transform="translate(0.000000,5000.000000) scale(0.100000,-0.100000)"
fill="#000000" stroke="none">
<path d="M28685 43085 c-217 -35 -381 -103 -565 -235 -159 -113 -233 -155
-391 -220 -207 -86 -305 -151 -355 -236 -42 -71 -48 -127 -29 -260 20 -137 16
-168 -30 -222 -109 -127 -119 -310 -22 -403 12 -12 45 -32 72 -44 79 -36 89
-51 170 -248 36 -89 101 -156 176 -185 30 -11 107 -29 171 -40 149 -25 204
-51 306 -145 46 -43 87 -77 92 -77 5 0 15 -3 23 -6 26 -9 85 202 122 429 14
85 14 101 0 153 -19 75 -19 156 1 308 l16 121 77 -3 c295 -14 544 74 926 325
72 47 146 99 166 114 20 16 42 29 48 29 19 0 88 -116 111 -185 12 -36 28 -104
36 -152 18 -114 18 -359 0 -455 -35 -181 -176 -500 -266 -601 -81 -90 -117
-101 -247 -74 l-62 13 -11 -48 c-17 -80 -15 -85 33 -92 23 -4 89 -24 147 -44
89 -31 118 -37 190 -37 67 0 95 5 135 23 62 29 127 91 151 146 33 76 48 86
130 86 89 0 118 12 141 59 29 57 24 197 -9 287 -47 130 -47 137 12 284 46 115
63 239 64 455 0 171 -3 215 -23 305 -97 452 -381 735 -856 857 -90 23 -123 26
-330 29 -167 2 -255 -1 -320 -11z"/>
<path d="M32090 38739 c-547 -5 -1132 -10 -1299 -11 l-303 -3 -448 -1130 -447
-1130 -429 -6 c-236 -3 -464 -7 -506 -8 l-78 -1 0 -51 0 -50 618 6 c659 6
3158 25 3380 25 117 0 133 2 139 18 4 14 902 2296 920 2340 6 14 49 14 -1547
1z m-232 -1043 c40 -21 55 -56 50 -115 -9 -94 -98 -175 -193 -175 -46 -1 -58
3 -83 27 -43 41 -49 86 -19 151 47 102 163 155 245 112z"/>
<path d="M34293 34123 c206 -346 949 -1699 1111 -2021 l26 -52 2693 2 2692 3
77 22 c199 57 332 130 465 257 161 153 259 330 303 545 19 97 21 147 27 678
l6 573 -3702 0 c-2036 0 -3700 -3 -3698 -7z"/>
<path d="M36435 31060 c-114 -62 -247 -106 -378 -126 -127 -20 -288 -14 -547
20 -102 13 -223 27 -269 31 l-83 7 3 -115 c4 -98 7 -120 25 -143 36 -48 69
-66 145 -77 87 -12 237 6 409 50 99 25 120 27 350 28 334 2 511 31 678 111
112 54 188 138 169 187 -3 7 -24 19 -48 26 -40 12 -316 52 -349 50 -8 -1 -55
-23 -105 -49z"/>
<path d="M30500 30482 c-241 -179 -203 -299 200 -643 79 -68 152 -139 175
-173 173 -247 322 -411 474 -520 135 -97 284 -150 370 -131 28 6 31 10 31 44
0 39 -42 128 -126 268 l-50 82 -119 60 c-280 141 -448 318 -661 696 -110 197
-208 359 -219 362 -5 1 -39 -19 -75 -45z"/>
<path d="M20870 23584 c-419 -40 -783 -158 -1070 -347 -95 -63 -246 -215 -285
-287 -28 -52 -30 -62 -29 -160 1 -188 86 -468 233 -767 220 -448 460 -724 704
-810 128 -45 229 -18 335 90 141 143 245 430 226 621 -8 77 8 141 42 162 34
23 109 21 231 -5 119 -26 129 -23 174 47 60 95 121 344 156 642 15 128 18 141
66 237 47 95 51 109 55 191 4 75 1 96 -18 140 -53 123 -207 205 -450 237 -94
13 -278 17 -370 9z"/>
<path d="M56070 23425 c-41 -10 -133 -17 -250 -19 -160 -3 -198 -7 -282 -29
-198 -52 -357 -146 -513 -302 -239 -239 -414 -600 -497 -1029 -20 -101 -22
-146 -23 -511 -1 -365 -3 -410 -23 -519 -58 -311 -190 -579 -431 -871 -290
-351 -402 -584 -404 -840 -2 -168 46 -297 157 -421 68 -76 163 -151 176 -138
5 5 84 169 175 364 193 414 237 497 312 601 143 199 356 379 528 447 72 29
278 79 430 105 l130 22 7 40 c9 51 10 263 2 342 l-7 61 -77 -5 c-111 -8 -144
1 -195 51 -98 98 -184 354 -241 716 -51 327 -20 570 106 821 59 117 152 208
277 273 l33 16 61 -122 c190 -379 399 -624 621 -728 62 -29 272 -80 333 -80
17 0 41 -3 54 -7 l23 -6 -4 -171 c-4 -159 -6 -176 -33 -246 -28 -71 -29 -83
-29 -225 1 -232 33 -453 91 -627 l28 -83 160 -16 c214 -22 502 -65 597 -90
388 -98 705 -334 879 -653 26 -46 28 -48 33 -25 30 130 35 412 11 609 -65 526
-297 1218 -631 1880 -275 547 -594 1013 -833 1217 -89 76 -237 152 -356 184
-107 28 -305 35 -395 14z"/>
<path d="M29400 23024 c-267 -18 -485 -47 -678 -90 -743 -166 -1385 -518
-1917 -1049 -618 -617 -1007 -1409 -1120 -2278 -20 -155 -20 -167 4 -167 29 0
61 -47 61 -89 0 -21 -13 -76 -29 -124 -76 -223 -73 -475 11 -897 119 -599 393
-1191 768 -1659 l91 -114 -23 -23 c-13 -12 -275 -259 -583 -549 -509 -479
-561 -530 -567 -564 -3 -21 -25 -75 -48 -120 -22 -45 -38 -86 -35 -91 4 -6 67
-7 158 -3 252 10 327 -7 327 -73 0 -14 4 -24 10 -22 5 2 255 235 556 518 300
283 554 521 565 528 16 13 30 5 133 -81 587 -486 1281 -776 2081 -869 172 -20
676 -17 855 5 902 112 1691 491 2316 1112 609 605 995 1378 1118 2235 57 400
44 906 -34 1300 -127 639 -385 1193 -799 1715 -123 155 -421 454 -581 581
-607 484 -1299 770 -2055 849 -142 14 -484 26 -585 19z m530 -324 c706 -70
1369 -345 1932 -802 154 -125 402 -375 527 -533 422 -529 678 -1136 767 -1817
22 -166 30 -559 15 -729 -68 -777 -363 -1485 -861 -2064 -107 -124 -354 -364
-475 -461 -506 -404 -1109 -667 -1745 -758 -287 -41 -701 -46 -960 -11 -830
111 -1534 458 -2115 1039 -592 594 -947 1348 -1036 2201 -16 153 -16 534 0
690 73 705 340 1362 777 1910 117 148 442 469 584 579 610 471 1262 716 2050
770 88 6 426 -3 540 -14z"/>
<path d="M57025 18411 c-16 -4 -42 -14 -57 -22 -37 -19 -1369 -1181 -1412
-1230 -58 -68 -68 -165 -27 -246 9 -17 119 -149 244 -293 126 -144 226 -264
223 -268 -4 -3 -91 -7 -194 -9 -103 -2 -210 -6 -239 -9 l-51 -5 24 -53 c46
-102 40 -214 -16 -298 -16 -24 -30 -47 -30 -52 0 -10 717 -2 743 9 10 4 17 18
17 36 0 22 9 36 42 59 41 30 171 76 282 101 l58 13 -62 17 c-34 9 -69 24 -77
32 -14 13 -13 16 3 25 34 17 272 23 346 9 l66 -14 194 170 c418 367 803 732
891 845 l41 54 -11 61 c-22 129 -46 164 -397 567 -381 438 -425 482 -489 498
-50 13 -67 13 -112 3z"/>
<path d="M58765 16509 c-68 -52 -215 -140 -340 -204 -307 -157 -665 -282
-1128 -395 -199 -49 -210 -51 -228 -34 -18 16 -20 16 -42 -3 -129 -116 -319
-265 -349 -275 -11 -4 544 -650 618 -720 34 -31 102 -58 148 -58 79 0 115 24
386 261 146 127 461 402 701 610 484 421 479 416 479 533 0 46 -6 74 -22 104
-23 42 -165 212 -177 212 -3 0 -24 -14 -46 -31z"/>
<path d="M54749 16493 c-33 -82 -17 -291 29 -396 19 -42 21 -44 108 -70 49
-14 112 -31 139 -37 28 -6 58 -13 67 -16 16 -5 15 0 -4 43 -43 96 -21 261 43
319 28 25 24 31 -33 44 -77 18 -225 76 -280 110 -27 17 -51 30 -53 30 -3 0
-10 -12 -16 -27z"/>
<path d="M55279 16331 c-76 -24 -122 -96 -122 -191 0 -190 204 -260 292 -101
78 141 -35 333 -170 292z"/>
<path d="M24320 14419 c-239 -225 -453 -427 -474 -448 l-39 -39 178 -189 c97
-103 181 -189 185 -191 6 -2 994 921 1158 1082 l64 63 -55 -5 c-105 -8 -370
41 -476 89 -25 12 -59 27 -76 34 l-30 13 -435 -409z"/>
<path d="M34610 6162 c-53 -26 -80 -74 -80 -141 0 -63 19 -101 66 -132 25 -17
49 -19 192 -19 l162 0 0 -94 0 -94 -257 -4 c-222 -4 -269 -8 -335 -26 -378
-103 -648 -376 -744 -752 -29 -115 -27 -404 4 -515 91 -322 344 -589 657 -695
l80 -27 -5854 -7 -5854 -7 -41 40 c-57 54 -105 76 -247 110 -311 74 -558 202
-742 382 l-78 77 -62 -20 c-159 -50 -267 -68 -417 -68 -125 0 -284 15 -363 35
l-23 6 8 -78 c14 -136 38 -295 58 -381 11 -46 20 -88 20 -93 0 -5 -76 -9 -178
-9 l-179 0 -42 40 c-59 56 -105 77 -232 105 -289 64 -551 193 -726 359 l-69
65 -110 -20 c-145 -26 -345 -35 -459 -20 -88 12 -282 52 -319 67 -18 7 -19 3
-12 -77 11 -143 61 -449 81 -501 5 -12 -653 -14 -4424 -15 -2437 -1 -4439 -4
-4450 -8 -42 -13 -54 -126 -16 -164 14 -15 2325 -16 28676 -16 l28661 0 19 24
c25 31 26 110 2 140 l-18 22 -3902 2 c-2147 1 -3903 3 -3903 4 0 2 15 22 33
45 46 62 85 153 108 260 34 156 74 224 234 398 174 189 210 257 203 378 -8
123 -71 237 -215 393 -43 46 -103 115 -132 153 l-55 69 -15 -24 c-50 -74 -139
-142 -239 -179 -85 -32 -272 -80 -313 -80 l-36 0 -6 -107 c-4 -58 -7 -224 -7
-368 0 -144 -5 -288 -11 -321 -27 -154 -93 -291 -177 -366 -52 -47 -97 -69
-195 -98 -92 -27 -145 -68 -156 -120 l-7 -35 -852 -3 c-469 -1 -852 -1 -852 0
0 2 7 25 15 52 35 115 43 494 18 898 l-6 107 -31 -24 c-78 -58 -265 -134 -397
-161 -94 -19 -181 -14 -265 15 l-52 19 -21 -58 c-31 -85 -91 -168 -180 -252
-165 -155 -408 -263 -744 -333 -199 -41 -295 -103 -332 -214 l-15 -47 -9208 3
c-5064 2 -9222 6 -9239 9 -51 8 -203 88 -265 141 -110 93 -188 212 -234 358
-17 55 -19 96 -19 500 l0 440 28 80 c88 250 282 425 532 480 54 12 31 13 -252
14 l-313 1 0 95 0 95 2086 0 c2075 0 2087 0 2119 20 95 58 85 222 -15 272 -33
17 -175 18 -2535 18 -2360 0 -2502 -1 -2535 -18z"/>
<path d="M52679 4871 c-59 -61 -84 -130 -83 -228 1 -57 7 -83 28 -127 26 -52
96 -126 120 -126 16 0 389 253 390 265 1 13 -373 265 -393 265 -8 0 -36 -22
-62 -49z"/>
</g>
</svg>
